<svg xmlns="http://www.w3.org/2000/svg" viewBox="0 0 400 400" fill="none" shape-rendering="auto"
    width="512" height="512">
    <metadata xmlns:rdf="http://www.w3.org/1999/02/22-rdf-syntax-ns#"
        xmlns:xsi="http://www.w3.org/2001/XMLSchema-instance"
        xmlns:dc="http://purl.org/dc/elements/1.1/" xmlns:dcterms="http://purl.org/dc/terms/">
        <rdf:RDF>
            <rdf:Description>
                <dc:title>Adventurer Neutral</dc:title>
                <dc:creator>Lisa Wischofsky</dc:creator>
                <dc:source xsi:type="dcterms:URI">
                    https://www.figma.com/community/file/1184595184137881796</dc:source>
                <dcterms:license xsi:type="dcterms:URI">https://creativecommons.org/licenses/by/4.0/</dcterms:license>
                <dc:rights>Remix of „Adventurer Neutral”
                    (https://www.figma.com/community/file/1184595184137881796) by „Lisa Wischofsky”,
                    licensed under „CC BY 4.0” (https://creativecommons.org/licenses/by/4.0/)</dc:rights>
            </rdf:Description>
        </rdf:RDF>
    </metadata>
    <mask id="viewboxMask">
        <rect width="400" height="400" rx="0" ry="0" x="0" y="0" fill="#fff" />
    </mask>
    <g mask="url(#viewboxMask)">
        <rect fill="#f2d3b1" width="400" height="400" x="0" y="0" />
        <g transform="translate(-279 -322)">
            <path
                d="M559.01 424.1a65.32 65.32 0 0 1 43.93 18.98c5.76 5.61 9.95 12.31 13.6 19.43 7.87-5.09 15.8-10.08 23.76-15.03a50.52 50.52 0 0 1 3.56 3.46c-3.17 3.52-7.07 5.39-10.96 7.93-4.77 3.03-9.55 6.03-14.3 9.08 3.17 10 4.53 20.39 2.8 30.81a64.8 64.8 0 0 1-20.75 38.93A64.57 64.57 0 0 1 558 554.53a64.54 64.54 0 0 1-36.9-10.63 65.67 65.67 0 0 1-26.4-34.58c-4.57-14.5-4.06-30.74 1.8-44.81a65.1 65.1 0 0 1 28.11-31.9c10.31-6.05 22.51-8.86 34.4-8.5Z"
                fill="#000" />
            <path
                d="M549.27 430.26c14.65-1.77 29.27 1.62 41.4 10.04a59.45 59.45 0 0 1 20.39 73.64c-6.12 13.64-17.67 24.9-31.58 30.43a58.17 58.17 0 0 1-32.48 3.67 59.6 59.6 0 0 1-40.35-26.68 61.43 61.43 0 0 1-9.37-29.31 60.38 60.38 0 0 1 13.41-40.36 59.47 59.47 0 0 1 38.58-21.43Z"
                fill="#fff" />
            <path
                d="M414.05 453.95a55.06 55.06 0 0 1 23.87 27.2c3.5 8.51 4.54 17.78 3.61 26.9a54.83 54.83 0 0 1-27.1 41.38c-16.49 9.64-37.66 9.77-54.3.41a55 55 0 0 1-27.4-38.84c-1.8-8.9-.64-17.67 1.9-26.3-5.83-3.62-12.14-6.61-17.75-10.54-1.95-1.1-1.44-4.12.68-4.64 1.65-.48 3.18.6 4.6 1.28 4.83 2.83 9.64 5.66 14.48 8.47 6.58-14.13 18.65-25.2 33.6-29.87a55.21 55.21 0 0 1 43.81 4.55Z"
                fill="#000" />
            <path
                d="M378.27 453.29a49.32 49.32 0 0 1 42.11 12.35 50.02 50.02 0 0 1 15.93 36.37 51.36 51.36 0 0 1-6.07 23.26 49.5 49.5 0 0 1-33.98 24.9c-8.07 1.72-16.23 1.1-24.08-1.36-19.1-5.88-33.31-23.78-34.38-43.79-.98-12.79 3.48-25.72 11.85-35.4a49.5 49.5 0 0 1 28.62-16.33Z"
                fill="#fff" />
            <path
                d="M527.27 466.19c7.37-.9 15.21 1.78 20.25 7.3a24.2 24.2 0 0 1 6.4 15.46 23.88 23.88 0 0 1-8.72 19.24c-6.96 5.83-17.24 6.92-25.36 2.96-8.64-4.1-14.23-13.6-13.38-23.18.7-11.14 9.74-20.51 20.81-21.78ZM358.54 480.84c11.4-3.87 24.34 3 27.54 14.6 3.77 11.68-4.02 24.85-16.03 27.31-10.63 2.65-22.19-3.54-25.66-13.94-3.92-11.13 2.75-24.59 14.15-27.97Z"
                fill="#000" />
        </g>
        <g transform="translate(-279 -322)">
            <path
                d="M606.99 397.59c1.52-.4 3.26.6 4.74.97-.11 1.2-.17 2.45-.47 3.61-1.58 1.5-3.57 2.6-5.39 3.78-22.77 14.6-46.18 28.4-70.32 40.63-11.53 5.73-23.34 11.3-35.55 15.44-6.86 2.19-13.72 4.28-21 3.44-3.32-.31-6.17-3.02-6.24-6.43-.04-4.22 3-8.6 5.08-12.15 1.28-2.68 4.5-3.04 7-4.12 37.23-13.75 74.43-27.65 111.66-41.45 3.48-1.23 6.9-2.81 10.5-3.72ZM338.99 432.64c29.88 5.94 60.13 12.03 90.02 18.02 2.27.32 4.6.07 6.85.45 2.45 2.3 3.64 6.2 4.54 9.37 1.17 4.09-.15 8.77-3.9 11-4 2.63-9.92 2.17-14.5 1.9-8.75-1-17.42-3.8-25.69-6.74-19.61-7.16-38.69-16.93-56.97-26.97-1.67-.96-3.68-1.94-4.79-3.55-.38-2.88 1.85-4.16 4.44-3.48Z"
                fill="#000" />
        </g>
        <g transform="translate(-279 -322)">
            <path
                d="M522.82 563.04c10.94 1.36 21.85 6.96 27.22 16.95 3.39 6.26 4.89 14.23 3.3 21.22-1.46 10.35-7.53 20.05-14.5 27.62a76.94 76.94 0 0 1-44.81 23.04 92.7 92.7 0 0 1-42.88-3c-8.75-2.81-16.6-7.54-23.81-13.16-8.31-6.76-15.78-15.35-19.58-25.48a33.06 33.06 0 0 1-1.77-17.28c1.2-6.9 6.43-12.62 12.81-15.26a36.97 36.97 0 0 1 21.19-1.83c9.02 1.21 16.75 5.04 24.7 9.17 14.67-15.16 36.94-24.58 58.13-22Z"
                fill="#000" />
            <path
                d="M518 568.55c8.8.31 17.43 3.3 23.68 9.68-3 3.63-6.83 6.32-11 8.45-1.69.91-3.64 1.7-5.06 3-2.43 2.96-3.61 8.2-6.65 10.48-3.54-1.12-6.78-3.83-9.93-5.8a175.42 175.42 0 0 1-44.04 4.58c-11.05.23-22.04-.67-32.94-2.47-1.81-.27-4.09-1-5.85-.33-2.18 1.44-3.94 3.6-5.81 5.4-1.83-2.83-3.68-5.66-5.46-8.54l-2.73-1.25c2.73-6 8.37-9.5 14.77-10.37 11.68-1.64 24.09 2.63 34 8.6 1.96 1.02 3.62 2.33 5.79.88 2.83-2.16 5.16-4.92 8-7.08 11.96-9.59 27.77-15.96 43.23-15.23Z"
                fill="#fff" />
            <path
                d="M545.34 583.32a29.2 29.2 0 0 1 2.14 17.66c-1.97 9.52-7.06 17.79-13.83 24.66-10.82 11.28-26.42 18.1-41.67 20.62-11.17 1.37-23.03 1.31-33.94-1.69-14.7-3.87-28.12-12.06-37.6-24.04-5.22-6.78-9.17-14.14-9.37-22.9 2.6 2.67 3.87 6.23 6.31 8.96 4.2 3.28 7.73-2.11 10.5-4.66 17.64 2.5 36.38 4.36 54.12 2.36 8.82-.4 17.5-1.87 26.14-3.56 3.7 1.43 8.33 5.92 12.7 4.94 6.03-2.25 6.05-11.84 12.25-13.61a42.73 42.73 0 0 0 10.12-6.82l2.13-1.92Z"
                fill="#8F2E45" />
        </g>
        <g transform="translate(-279 -322)"></g>
    </g>
</svg>